<svg xmlns="http://www.w3.org/2000/svg" xmlns:xlink="http://www.w3.org/1999/xlink" viewBox="0 0 268 268" ><defs><style>.cls-1{fill:#ba6024;}.cls-2{fill:url(#linear-gradient);}</style><linearGradient id="linear-gradient" x1="134" x2="134" y2="268" gradientUnits="userSpaceOnUse"><stop offset="0" stop-color="#754c24"/><stop offset="1"/></linearGradient></defs><title>purewood</title><g id="Layer_2" data-name="Layer 2"><g id="Layer_1-2" data-name="Layer 1"><path class="cls-1" d="M0,0V268H268V0ZM251,252H17V16H251Z"/><path class="cls-2" d="M267,1V267H1V1H267M17,253H251a1,1,0,0,0,1-1V16a1,1,0,0,0-1-1H17a1,1,0,0,0-1,1V252a1,1,0,0,0,1,1M268,0H0V268H268V0ZM17,252V16H251V252Z"/></g></g></svg>