<svg xmlns="http://www.w3.org/2000/svg" viewBox="0 0 469 411"><title>d10_1</title><g id="Layer_2" data-name="Layer 2"><g id="d10_d100" data-name="d10 / d100"><polygon points="368 230 234 6 101 230 234 308 368 230" fill="none" stroke="#000" stroke-linejoin="round" stroke-width="12"/><polygon points="234 6 449 156 463 230 368 230 234 6" fill="none" stroke="#000" stroke-linejoin="round" stroke-width="12"/><polygon points="234 6 20 156 6 230 101 230 234 6" fill="none" stroke="#000" stroke-linejoin="round" stroke-width="12"/><polygon points="234 308 234 405 463 230 368 230 234 308" fill="none" stroke="#000" stroke-linejoin="round" stroke-width="12"/><polygon points="234 308 234 405 6 230 101 230 234 308" fill="none" stroke="#000" stroke-linejoin="round" stroke-width="12"/><path d="M177.5,270a17.81,17.81,0,0,1-13.65-5.82c-3.34-3.7-5-8.91-5-15.5V170.76c-16.75,11.91-23.7,13.62-27.9,13.62a15.41,15.41,0,0,1-11.23-4.95A16.1,16.1,0,0,1,115,168c0-6.39,2.9-9.91,5.33-11.73a73.15,73.15,0,0,1,12-6.63,77.62,77.62,0,0,0,17.63-10.89A74.93,74.93,0,0,0,161.61,126c5.1-7.1,6.78-9.08,7.6-9.94,2.21-2.34,5.56-3.48,10.24-3.48a15.5,15.5,0,0,1,12.64,6.12c2.85,3.65,4.29,8.5,4.29,14.42V244.89C196.38,266.76,184.55,270,177.5,270Z"/><path d="M179.45,118a10,10,0,0,1,8.31,4q3.12,4,3.12,11V244.89q0,19.64-13.38,19.63a12.27,12.27,0,0,1-9.57-4q-3.62-4-3.61-11.82V159.83q-24.81,19-33.4,19a9.9,9.9,0,0,1-7.28-3.27,10.59,10.59,0,0,1-3.17-7.57q0-5,3.13-7.33a69.14,69.14,0,0,1,11-6.05,82.36,82.36,0,0,0,18.9-11.72,80,80,0,0,0,12.55-13.77q5.46-7.62,7.12-9.38t6.25-1.75m0-11c-6.19,0-11,1.75-14.24,5.2-1.07,1.13-2.87,3.27-8.07,10.52a69.38,69.38,0,0,1-10.83,11.88c-3.93,3.42-9.44,6.8-16.37,10.07a77.6,77.6,0,0,0-13,7.2c-4.85,3.64-7.52,9.37-7.52,16.13a21.53,21.53,0,0,0,6.28,15.23,20.8,20.8,0,0,0,15.17,6.61c4.34,0,10.42-1.29,22.4-8.81V248.7c0,8,2.17,14.45,6.45,19.19a23.18,23.18,0,0,0,17.73,7.63c8.06,0,14.86-3.45,19.12-9.71,3.54-5.19,5.26-12,5.26-20.92V133.08c0-7.18-1.83-13.17-5.45-17.8a21.09,21.09,0,0,0-17-8.24Z" fill="#fff"/><path d="M286.29,269.83a50.24,50.24,0,0,1-29.81-9.43c-8.68-6.19-15.28-14.83-19.63-25.67l0-.12a91.81,91.81,0,0,1-4.73-19.06,154.56,154.56,0,0,1-1.47-22,210,210,0,0,1,1.61-27.29,93,93,0,0,1,5.21-21.59c4.27-10.44,10.59-18.49,18.8-24s18.07-8.31,29.29-8.31a54.64,54.64,0,0,1,20.3,3.66,47.47,47.47,0,0,1,16.28,10.82A60.44,60.44,0,0,1,333.66,144c5.34,11.59,7.94,27.26,7.94,47.92a174.48,174.48,0,0,1-2,28.45A70,70,0,0,1,331.71,243a53.71,53.71,0,0,1-19.18,19.81A50.82,50.82,0,0,1,286.29,269.83Zm-.39-126.66c-6.31,0-10.25,2.92-12.79,9.47-3.09,8-4.66,20.78-4.66,38.05,0,11.86.69,21.65,2.06,29.09,1.25,6.82,3.27,11.92,6,15.16,2.34,2.77,5.38,4.06,9.57,4.06s7.45-1.34,9.79-4.22c2.77-3.41,4.78-8.58,6-15.36,1.31-7.39,2-17.32,2-29.51,0-11.51-.69-21-2-28.23-1.25-6.57-3.25-11.48-6-14.58C293.51,144.45,290.26,143.17,285.9,143.17Z"/><path d="M285.51,117.84a48.94,48.94,0,0,1,18.26,3.27,41.84,41.84,0,0,1,14.41,9.57,54.79,54.79,0,0,1,10.49,15.58q7.43,16.11,7.43,45.61a167.51,167.51,0,0,1-2,27.53,64.14,64.14,0,0,1-7.22,20.9,48,48,0,0,1-17.19,17.78,45.19,45.19,0,0,1-23.44,6.25,44.66,44.66,0,0,1-26.61-8.4q-11.77-8.4-17.72-23.24a86.21,86.21,0,0,1-4.45-17.92,149.83,149.83,0,0,1-1.41-21.24A204.53,204.53,0,0,1,237.66,167a87.85,87.85,0,0,1,4.88-20.31q5.76-14.06,16.75-21.44t26.22-7.37m.59,126.66q9,0,14.06-6.25t7.13-17.87q2-11.62,2-30.47,0-17.86-2.15-29.25T300,143.48q-5.07-5.82-14.06-5.81-12.88,0-17.92,13t-5,40q0,18.36,2.15,30.08t7.23,17.73q5.07,6,13.77,6m-.59-137.66c-12.33,0-23.21,3.11-32.35,9.24s-16.14,15-20.8,26.4l-.06.16a98.73,98.73,0,0,0-5.55,22.88,215.85,215.85,0,0,0-1.65,28,161.28,161.28,0,0,0,1.52,22.81,98.2,98.2,0,0,0,5,20.2,2.44,2.44,0,0,0,.1.24c4.74,11.83,12,21.29,21.54,28.1a57.67,57.67,0,0,0,62,2.66,59.18,59.18,0,0,0,21.11-21.74l.05-.1A75.51,75.51,0,0,0,345,221.24a179,179,0,0,0,2.11-29.37c0-21.47-2.76-37.89-8.43-50.21A66.07,66.07,0,0,0,326,123a52.89,52.89,0,0,0-18.17-12.07,60.11,60.11,0,0,0-22.34-4.06Zm.59,126.66c-3.16,0-4.45-1-5.37-2.11-1.46-1.72-3.47-5.3-4.81-12.6-1.31-7.12-2-16.57-2-28.1,0-20.66,2.33-31,4.29-36.06s4.19-6,7.66-6,4.9,1,5.78,2.05c1.42,1.62,3.38,5,4.7,12s2,16,2,27.2c0,11.87-.64,21.48-1.89,28.56-1,5.76-2.68,10.21-4.83,12.85-.92,1.13-2.23,2.18-5.52,2.18Z" fill="#fff"/></g></g></svg>