<svg xmlns="http://www.w3.org/2000/svg" viewBox="0 0 469 411"><title>d100</title><g id="Layer_2" data-name="Layer 2"><g id="d10_d100" data-name="d10 / d100"><polygon points="368 230 234 6 101 230 234 308 368 230" fill="none" stroke="#000" stroke-linejoin="round" stroke-width="12"/><polygon points="234 6 449 156 463 230 368 230 234 6" fill="none" stroke="#000" stroke-linejoin="round" stroke-width="12"/><polygon points="234 6 20 156 6 230 101 230 234 6" fill="none" stroke="#000" stroke-linejoin="round" stroke-width="12"/><polygon points="234 308 234 405 463 230 368 230 234 308" fill="none" stroke="#000" stroke-linejoin="round" stroke-width="12"/><polygon points="234 308 234 405 6 230 101 230 234 308" fill="none" stroke="#000" stroke-linejoin="round" stroke-width="12"/><path d="M123.32,270.34a17.84,17.84,0,0,1-13.66-5.82c-3.33-3.69-5-8.91-5-15.5V171.08C87.88,183,80.93,184.7,76.74,184.7a15.41,15.41,0,0,1-11.23-4.95,16.1,16.1,0,0,1-4.72-11.39c0-6.39,2.89-9.91,5.32-11.73a73.34,73.34,0,0,1,12-6.63,77.84,77.84,0,0,0,17.63-10.89,74.88,74.88,0,0,0,11.68-12.83c5.1-7.1,6.78-9.08,7.6-9.94,2.21-2.34,5.57-3.48,10.25-3.48A15.5,15.5,0,0,1,137.91,119c2.84,3.65,4.29,8.5,4.29,14.42V245.21C142.2,267.08,130.37,270.34,123.32,270.34Z"/><path d="M125.27,118.36a10,10,0,0,1,8.3,4q3.12,4,3.13,11V245.21q0,19.64-13.38,19.63a12.25,12.25,0,0,1-9.57-4q-3.61-4-3.62-11.82V160.15q-24.79,19-33.39,19a9.86,9.86,0,0,1-7.28-3.27,10.53,10.53,0,0,1-3.17-7.57q0-5,3.12-7.33a68.89,68.89,0,0,1,11-6.05,82.5,82.5,0,0,0,18.89-11.72,80,80,0,0,0,12.55-13.77q5.48-7.62,7.13-9.37c1.11-1.18,3.19-1.76,6.25-1.76m0-11c-6.19,0-11,1.75-14.25,5.2-1.06,1.13-2.86,3.27-8.06,10.52A69.79,69.79,0,0,1,92.13,135,72.54,72.54,0,0,1,75.76,145a76.77,76.77,0,0,0-13,7.2c-4.85,3.64-7.52,9.37-7.52,16.13a21.53,21.53,0,0,0,6.28,15.23,20.79,20.79,0,0,0,15.17,6.61c4.34,0,10.42-1.29,22.39-8.81V249c0,8,2.17,14.45,6.45,19.19a23.22,23.22,0,0,0,17.74,7.63c8.06,0,14.85-3.45,19.12-9.71,3.54-5.19,5.26-12,5.26-20.92V133.4c0-7.18-1.84-13.17-5.46-17.8a21.07,21.07,0,0,0-17-8.24Z" fill="#fff"/><path d="M232.11,270.15a50.24,50.24,0,0,1-29.81-9.43c-8.68-6.19-15.28-14.83-19.63-25.67a.61.61,0,0,1,0-.12,92.44,92.44,0,0,1-4.74-19.06,156.25,156.25,0,0,1-1.47-22A210.24,210.24,0,0,1,178,166.56,93.63,93.63,0,0,1,183.23,145c4.28-10.44,10.6-18.49,18.81-24s18.07-8.31,29.29-8.31a54.55,54.55,0,0,1,20.29,3.66,47.3,47.3,0,0,1,16.29,10.83,60.45,60.45,0,0,1,11.57,17.12c5.34,11.59,7.93,27.26,7.93,47.92a173.28,173.28,0,0,1-2,28.45,70,70,0,0,1-7.85,22.68,53.79,53.79,0,0,1-19.18,19.81A50.72,50.72,0,0,1,232.11,270.15Zm-.39-126.66c-6.31,0-10.26,2.92-12.8,9.47-3.09,8-4.65,20.78-4.65,38,0,11.86.69,21.64,2,29.09,1.25,6.82,3.28,11.92,6,15.16,2.34,2.77,5.38,4.06,9.57,4.06,4.34,0,7.46-1.34,9.8-4.22,2.77-3.41,4.78-8.58,6-15.35,1.3-7.4,2-17.33,2-29.52,0-11.51-.69-21-2.05-28.23-1.24-6.57-3.25-11.48-6-14.58C239.33,144.77,236.08,143.49,231.72,143.49Z"/><path d="M231.33,118.16a48.94,48.94,0,0,1,18.26,3.27A41.7,41.7,0,0,1,264,131a54.81,54.81,0,0,1,10.5,15.58q7.42,16.11,7.42,45.61a167.62,167.62,0,0,1-2,27.53,63.92,63.92,0,0,1-7.23,20.9,48,48,0,0,1-17.19,17.78,45.15,45.15,0,0,1-23.43,6.25,44.66,44.66,0,0,1-26.61-8.4q-11.77-8.4-17.73-23.24a86.22,86.22,0,0,1-4.44-17.92,148.3,148.3,0,0,1-1.42-21.24,204.53,204.53,0,0,1,1.56-26.57A87.31,87.31,0,0,1,188.36,147q5.76-14.06,16.74-21.43t26.23-7.38m.58,126.66q9,0,14.06-6.25t7.13-17.87q2.06-11.62,2.05-30.47,0-17.86-2.15-29.25t-7.22-17.18Q240.7,138,231.72,138q-12.9,0-17.92,13t-5,40q0,18.36,2.15,30.08t7.22,17.73q5.09,6,13.77,6m-.58-137.66c-12.34,0-23.22,3.11-32.35,9.24s-16.14,15-20.8,26.4a1.22,1.22,0,0,0-.07.17,98.66,98.66,0,0,0-5.54,22.87,216,216,0,0,0-1.66,28,161.43,161.43,0,0,0,1.53,22.81,97.56,97.56,0,0,0,5,20.2l.09.24c4.75,11.83,12,21.29,21.55,28.1a57.65,57.65,0,0,0,62,2.66,59,59,0,0,0,21.11-21.74l.06-.1a75.49,75.49,0,0,0,8.48-24.46,178.78,178.78,0,0,0,2.11-29.37c0-21.47-2.76-37.89-8.43-50.21a65.86,65.86,0,0,0-12.65-18.69,52.8,52.8,0,0,0-18.17-12.07,60,60,0,0,0-22.33-4.06Zm.58,126.66c-3.15,0-4.44-1-5.37-2.1-1.45-1.73-3.47-5.31-4.81-12.61-1.3-7.12-2-16.58-2-28.1,0-20.66,2.33-31,4.28-36.06s4.19-6,7.67-6,4.89,1,5.78,2c1.41,1.62,3.38,5,4.7,12s2,16,2,27.2c0,11.87-.63,21.48-1.88,28.56-1,5.76-2.69,10.21-4.83,12.85-.93,1.13-2.23,2.18-5.53,2.18Z" fill="#fff"/><path d="M351,270.15a50.21,50.21,0,0,1-29.8-9.43c-8.68-6.19-15.29-14.83-19.64-25.67,0,0,0-.08,0-.12a92.44,92.44,0,0,1-4.74-19.06,154.77,154.77,0,0,1-1.47-22,210.24,210.24,0,0,1,1.61-27.29A93.51,93.51,0,0,1,302.08,145c4.28-10.44,10.59-18.49,18.81-24s18.06-8.31,29.28-8.31a54.57,54.57,0,0,1,20.3,3.66,47.3,47.3,0,0,1,16.29,10.83,60.45,60.45,0,0,1,11.57,17.12c5.34,11.59,7.93,27.26,7.93,47.92a173.28,173.28,0,0,1-2,28.45,69.79,69.79,0,0,1-7.86,22.68,53.69,53.69,0,0,1-19.17,19.81A50.76,50.76,0,0,1,351,270.15Zm-.39-126.66c-6.31,0-10.25,2.92-12.79,9.47-3.09,8-4.66,20.78-4.66,38,0,11.86.7,21.64,2.06,29.09,1.25,6.82,3.28,11.92,6,15.16,2.34,2.77,5.38,4.06,9.57,4.06,4.34,0,7.45-1.34,9.79-4.22,2.78-3.41,4.79-8.58,6-15.35,1.31-7.4,2-17.33,2-29.52,0-11.51-.69-21-2.05-28.23-1.24-6.57-3.25-11.48-6-14.58C358.17,144.77,354.93,143.49,350.56,143.49Z"/><path d="M350.17,118.16a48.87,48.87,0,0,1,18.26,3.27A41.84,41.84,0,0,1,382.84,131a55,55,0,0,1,10.5,15.58q7.41,16.11,7.42,45.61a167.62,167.62,0,0,1-1.95,27.53,64.38,64.38,0,0,1-7.23,20.9,48,48,0,0,1-17.19,17.78A45.16,45.16,0,0,1,351,264.65a44.7,44.7,0,0,1-26.61-8.4q-11.76-8.4-17.72-23.24a86.84,86.84,0,0,1-4.45-17.92,149.83,149.83,0,0,1-1.41-21.24,204.53,204.53,0,0,1,1.56-26.57A87.85,87.85,0,0,1,307.2,147Q313,132.92,324,125.54t26.22-7.38m.59,126.66q9,0,14.06-6.25T372,220.7Q374,209.08,374,190.23q0-17.86-2.15-29.25t-7.22-17.18Q359.55,138,350.56,138q-12.88,0-17.92,13t-5,40q0,18.36,2.15,30.08T337,238.82q5.07,6,13.77,6m-.59-137.66c-12.33,0-23.21,3.11-32.35,9.24s-16.13,15-20.79,26.4a1.22,1.22,0,0,0-.07.17,98.53,98.53,0,0,0-5.54,22.87,216,216,0,0,0-1.66,28,160,160,0,0,0,1.53,22.81,98.2,98.2,0,0,0,5,20.2l.1.24c4.75,11.83,12,21.29,21.54,28.1A57.67,57.67,0,0,0,380,267.86a59.1,59.1,0,0,0,21.11-21.74l.06-.1a75.49,75.49,0,0,0,8.48-24.46,178.78,178.78,0,0,0,2.11-29.37c0-21.47-2.76-37.89-8.43-50.21a66.07,66.07,0,0,0-12.65-18.69,52.8,52.8,0,0,0-18.17-12.07,60.08,60.08,0,0,0-22.34-4.06Zm.59,126.66c-3.15,0-4.44-1-5.37-2.11-1.46-1.72-3.47-5.3-4.81-12.6-1.3-7.12-2-16.58-2-28.1,0-20.66,2.34-31,4.29-36.06s4.19-6,7.66-6,4.9,1,5.78,2c1.42,1.62,3.39,5,4.7,12s2,16,2,27.2c0,11.87-.63,21.48-1.88,28.56-1,5.76-2.69,10.21-4.84,12.85-.92,1.13-2.23,2.18-5.52,2.18Z" fill="#fff"/></g></g></svg>