<svg xmlns="http://www.w3.org/2000/svg" viewBox="0 0 417 436"><title>d12_1</title><g id="Layer_2" data-name="Layer 2"><g id="d12"><polygon points="213 6 212 111 115 185 19 157 87 47 213 6" fill="none" stroke="#000" stroke-linejoin="round" stroke-width="12"/><polygon points="213 6 212 111 308 185 404 157 338 47 213 6" fill="none" stroke="#000" stroke-linejoin="round" stroke-width="12"/><polygon points="115 185 212 111 308 185 280 301 144 301 115 185" fill="none" stroke="#000" stroke-linejoin="round" stroke-width="12"/><polygon points="115 185 19 157 6 267 78 377 144 301 115 185" fill="none" stroke="#000" stroke-linejoin="round" stroke-width="12"/><polygon points="78 377 144 301 280 301 340 377 211 430 78 377" fill="none" stroke="#000" stroke-linejoin="round" stroke-width="12"/><polygon points="308 185 404 157 411 267 340 377 280 301 308 185" fill="none" stroke="#000" stroke-linejoin="round" stroke-width="12"/><path d="M157,295.26a17.81,17.81,0,0,1-13.65-5.82c-3.34-3.7-5-8.91-5-15.5V196c-16.75,11.91-23.7,13.62-27.9,13.62a15.41,15.41,0,0,1-11.23-5,16.1,16.1,0,0,1-4.72-11.39c0-6.39,2.9-9.91,5.33-11.73a73.15,73.15,0,0,1,12-6.63A77.62,77.62,0,0,0,129.4,164a74.93,74.93,0,0,0,11.69-12.83c5.1-7.1,6.78-9.08,7.6-9.94,2.21-2.34,5.56-3.48,10.24-3.48a15.5,15.5,0,0,1,12.64,6.12c2.85,3.65,4.29,8.5,4.29,14.42V270.13C175.86,292,164,295.26,157,295.26Z"/><path d="M158.93,143.28a10,10,0,0,1,8.31,4q3.12,4,3.12,11V270.13q0,19.64-13.38,19.63a12.27,12.27,0,0,1-9.57-4q-3.61-4-3.61-11.82V185.07Q119,204.12,110.4,204.12a9.9,9.9,0,0,1-7.28-3.27,10.59,10.59,0,0,1-3.17-7.57q0-5,3.13-7.33a69.14,69.14,0,0,1,11-6A82.36,82.36,0,0,0,133,168.18a80,80,0,0,0,12.55-13.77q5.46-7.62,7.12-9.38t6.25-1.75m0-11c-6.19,0-11,1.75-14.24,5.2-1.07,1.13-2.87,3.27-8.07,10.51a69.07,69.07,0,0,1-10.83,11.89c-3.93,3.42-9.44,6.8-16.37,10.07a77.6,77.6,0,0,0-13,7.2c-4.85,3.64-7.52,9.37-7.52,16.13a21.53,21.53,0,0,0,6.28,15.23,20.8,20.8,0,0,0,15.17,6.61c4.34,0,10.42-1.29,22.4-8.81v67.63c0,8,2.17,14.45,6.45,19.19A23.18,23.18,0,0,0,157,300.76c8.06,0,14.86-3.45,19.12-9.71,3.54-5.19,5.26-12,5.26-20.92V158.32c0-7.18-1.83-13.17-5.45-17.8a21.09,21.09,0,0,0-17-8.24Z" fill="#fff"/><path d="M232.76,292.82c-6.36,0-11.5-1.9-15.29-5.64a18.34,18.34,0,0,1-5.73-13.43c0-3.17,1-7,3.12-11.6a38.41,38.41,0,0,1,6.77-10.63c8.74-9.07,16.71-16.92,23.72-23.37,7.2-6.63,12.28-10.93,15.53-13.13a80.83,80.83,0,0,0,12.44-10.6,40.08,40.08,0,0,0,7.14-10.28,22.56,22.56,0,0,0,2.27-9.46,15.62,15.62,0,0,0-2.19-8.34,15.06,15.06,0,0,0-6-5.65A17.78,17.78,0,0,0,266,168.6c-6.7,0-11.63,2.78-15.51,8.74-.13.2-.8,1.43-2.69,6.82a38.34,38.34,0,0,1-6.11,11.72c-2.07,2.53-5.95,5.53-12.71,5.53a16.57,16.57,0,0,1-12-4.83c-3.21-3.21-4.83-7.47-4.83-12.68a42.49,42.49,0,0,1,3.44-16.16,46,46,0,0,1,10.24-15.09,50.38,50.38,0,0,1,17.08-10.82,64.08,64.08,0,0,1,23.66-4.05c10.69,0,20,1.73,27.72,5.16a44,44,0,0,1,13.78,9.84,45.9,45.9,0,0,1,12.44,31.32,47.32,47.32,0,0,1-6.8,24.87,74.36,74.36,0,0,1-13.29,16.77c-4.2,3.77-11.31,9.76-21.14,17.79a194.34,194.34,0,0,0-17,15.24h39.59c6.31,0,11.35,1.45,15,4.29a15.72,15.72,0,0,1,6.12,12.83,16.87,16.87,0,0,1-4.7,11.91c-3.18,3.33-7.76,5-13.59,5Z"/><path d="M266.55,143.28q14.94,0,25.49,4.68a38.35,38.35,0,0,1,12,8.6A40.28,40.28,0,0,1,315,184.1a41.63,41.63,0,0,1-6,22,68.66,68.66,0,0,1-12.25,15.53q-6.25,5.61-21,17.62t-20.17,18.66a55.54,55.54,0,0,0-4.78,6.34h51q7.6,0,11.62,3.13a10.18,10.18,0,0,1,4,8.49,11.32,11.32,0,0,1-3.17,8.11q-3.18,3.31-9.62,3.32H232.76q-7.32,0-11.42-4.05a12.94,12.94,0,0,1-4.1-9.52c0-2.35.87-5.46,2.63-9.33a33.57,33.57,0,0,1,5.76-9.13q13-13.48,23.44-23.1T264,219.55a86.35,86.35,0,0,0,13.33-11.38,45.41,45.41,0,0,0,8.11-11.72,27.9,27.9,0,0,0,2.78-11.77,21.18,21.18,0,0,0-3-11.18,20.52,20.52,0,0,0-8.1-7.66A23.33,23.33,0,0,0,266,163.1q-12.8,0-20.12,11.23a49.16,49.16,0,0,0-3.27,8,33.55,33.55,0,0,1-5.18,10.06c-1.92,2.34-4.73,3.51-8.45,3.51a11,11,0,0,1-8.1-3.22q-3.22-3.23-3.22-8.79a36.71,36.71,0,0,1,3-14.06,40.27,40.27,0,0,1,9-13.28,44.68,44.68,0,0,1,15.23-9.62,58.46,58.46,0,0,1,21.63-3.66m0-11a69.71,69.71,0,0,0-25.69,4.43,55.78,55.78,0,0,0-18.92,12,51.41,51.41,0,0,0-11.45,16.89,47.86,47.86,0,0,0-3.86,18.26c0,8.37,3.5,13.63,6.44,16.57A22,22,0,0,0,229,206.91c8.91,0,14.14-4.1,17-7.54A43.74,43.74,0,0,0,253,186c1.39-4,2-5.43,2.23-5.84,2.83-4.23,6.06-6,10.78-6a12.43,12.43,0,0,1,6,1.44,9.65,9.65,0,0,1,3.87,3.65,10.3,10.3,0,0,1,1.39,5.49,17,17,0,0,1-1.76,7.15,34.74,34.74,0,0,1-6.18,8.84,75.3,75.3,0,0,1-11.54,9.83c-3.53,2.4-8.66,6.73-16.13,13.6-7.1,6.53-15.14,14.46-23.91,23.56l-.09.09a43.8,43.8,0,0,0-7.76,12.12c-2.44,5.37-3.62,9.91-3.62,13.88a23.91,23.91,0,0,0,7.37,17.34c3.33,3.3,9.36,7.23,19.15,7.23h71.88c9.21,0,14.64-3.65,17.57-6.72a22.3,22.3,0,0,0,6.22-15.71,21.29,21.29,0,0,0-8.23-17.16c-4.64-3.62-10.83-5.46-18.39-5.46H276.19c1.91-1.64,4.08-3.46,6.55-5.48,10-8.2,17-14.08,21.34-18a79.54,79.54,0,0,0,14.31-18A52.73,52.73,0,0,0,326,184.1,51.29,51.29,0,0,0,312,149a49.61,49.61,0,0,0-15.42-11l-.11-.05c-8.42-3.74-18.49-5.63-30-5.63Z" fill="#fff"/></g></g></svg>