<svg xmlns="http://www.w3.org/2000/svg" viewBox="0 0 379 434.81"><title>d20_1</title><g id="Layer_2" data-name="Layer 2"><g id="d20"><polygon points="6.5 111.84 6.5 323.15 189.5 428.81 372.5 323.15 372.5 111.84 189.5 6.19 6.5 111.84" fill="none" stroke="#000" stroke-linejoin="round" stroke-width="12"/><polyline points="6 112 99 144 190 6 274 144 373 112" fill="none" stroke="#000" stroke-linejoin="round" stroke-width="12"/><polygon points="373 323 274 144 99 144 6 323 189 345 373 323" fill="none" stroke="#000" stroke-linejoin="round" stroke-width="12"/><polyline points="190 429 189 345 274 144 99 144 189.5 345.5" fill="none" stroke="#000" stroke-linejoin="round" stroke-width="12"/><path d="M96.09,311.16c-6.35,0-11.5-1.9-15.29-5.64a18.34,18.34,0,0,1-5.73-13.43c0-3.17,1-7,3.13-11.6A38.4,38.4,0,0,1,85,269.86c8.74-9.07,16.7-16.91,23.72-23.37,7.2-6.63,12.28-10.92,15.54-13.13a81.2,81.2,0,0,0,12.43-10.6,39.83,39.83,0,0,0,7.14-10.28,22.56,22.56,0,0,0,2.27-9.46,15.7,15.7,0,0,0-2.18-8.34,15.16,15.16,0,0,0-6-5.65,17.73,17.73,0,0,0-8.59-2.09c-6.7,0-11.63,2.78-15.51,8.74a47,47,0,0,0-2.69,6.82A38.34,38.34,0,0,1,105,214.22c-2.07,2.53-5.95,5.53-12.7,5.53a16.58,16.58,0,0,1-12-4.83c-3.21-3.21-4.83-7.47-4.83-12.68a42.49,42.49,0,0,1,3.44-16.16A46.06,46.06,0,0,1,89.15,171a50.23,50.23,0,0,1,17.07-10.82,64.15,64.15,0,0,1,23.66-4c10.69,0,20,1.73,27.73,5.16a44.1,44.1,0,0,1,13.77,9.84,45.9,45.9,0,0,1,12.44,31.32,47.32,47.32,0,0,1-6.8,24.87,74.07,74.07,0,0,1-13.28,16.77c-4.21,3.77-11.32,9.76-21.15,17.79a195.84,195.84,0,0,0-17,15.24h39.59c6.31,0,11.35,1.45,15,4.29a15.7,15.7,0,0,1,6.12,12.83,16.91,16.91,0,0,1-4.69,11.91c-3.19,3.33-7.76,5-13.6,5Z"/><path d="M129.88,161.62q14.94,0,25.49,4.68a38.35,38.35,0,0,1,12,8.6,40.28,40.28,0,0,1,10.94,27.54,41.71,41.71,0,0,1-6,22A68.67,68.67,0,0,1,160.06,240q-6.26,5.61-20.95,17.62T119,276.27a54.39,54.39,0,0,0-4.79,6.34h51q7.62,0,11.62,3.13a10.18,10.18,0,0,1,4,8.49,11.32,11.32,0,0,1-3.17,8.11q-3.18,3.32-9.62,3.32H96.09q-7.32,0-11.42-4.05a12.94,12.94,0,0,1-4.1-9.52q0-3.52,2.63-9.33A33.33,33.33,0,0,1,89,273.63q13-13.49,23.43-23.1t14.94-12.64a85.88,85.88,0,0,0,13.33-11.38,45.41,45.41,0,0,0,8.11-11.72A27.75,27.75,0,0,0,151.56,203a21.18,21.18,0,0,0-3-11.18,20.59,20.59,0,0,0-8.1-7.66,23.33,23.33,0,0,0-11.18-2.74q-12.8,0-20.12,11.23a49.16,49.16,0,0,0-3.27,8,33.55,33.55,0,0,1-5.18,10.06q-2.88,3.51-8.44,3.51A11,11,0,0,1,84.18,211Q81,207.81,81,202.24a36.73,36.73,0,0,1,3-14.06,40.09,40.09,0,0,1,9-13.28,44.68,44.68,0,0,1,15.23-9.62,58.54,58.54,0,0,1,21.63-3.66m0-11a69.66,69.66,0,0,0-25.68,4.43,55.82,55.82,0,0,0-18.93,12A51.41,51.41,0,0,0,73.82,184,47.86,47.86,0,0,0,70,202.24c0,8.37,3.5,13.63,6.44,16.57a22,22,0,0,0,15.89,6.44c8.9,0,14.13-4.1,16.95-7.54a43.74,43.74,0,0,0,7.05-13.39,62.11,62.11,0,0,1,2.24-5.84c2.82-4.23,6-6,10.77-6a12.47,12.47,0,0,1,6,1.44,9.56,9.56,0,0,1,3.86,3.65,10.3,10.3,0,0,1,1.39,5.49,16.86,16.86,0,0,1-1.76,7.15,34.51,34.51,0,0,1-6.17,8.84,75.9,75.9,0,0,1-11.55,9.83c-3.52,2.4-8.66,6.72-16.13,13.6C97.86,249,89.81,256.9,81,266l-.08.09a43.59,43.59,0,0,0-7.77,12.12c-2.44,5.37-3.62,9.91-3.62,13.88a24,24,0,0,0,7.37,17.34c3.33,3.3,9.37,7.23,19.15,7.23H168c9.21,0,14.64-3.65,17.57-6.72a22.3,22.3,0,0,0,6.22-15.71,21.28,21.28,0,0,0-8.23-17.16c-4.64-3.62-10.83-5.46-18.39-5.46H139.53c1.9-1.64,4.07-3.46,6.54-5.48,10-8.2,17-14.08,21.34-18a79.54,79.54,0,0,0,14.31-18,52.73,52.73,0,0,0,7.6-27.72,51.29,51.29,0,0,0-13.95-35.1,49.61,49.61,0,0,0-15.42-11l-.11-.05c-8.41-3.74-18.49-5.63-30-5.63Z" fill="#fff"/><path d="M248,313.41A50.24,50.24,0,0,1,218.14,304c-8.67-6.19-15.28-14.83-19.63-25.67l0-.12a91.81,91.81,0,0,1-4.73-19.06,154.71,154.71,0,0,1-1.48-22,210.13,210.13,0,0,1,1.62-27.29,93.12,93.12,0,0,1,5.21-21.59c4.27-10.44,10.59-18.49,18.8-24s18.07-8.31,29.29-8.31a54.64,54.64,0,0,1,20.3,3.66,47.47,47.47,0,0,1,16.28,10.82,60.44,60.44,0,0,1,11.57,17.13c5.34,11.59,7.93,27.26,7.93,47.92a173.28,173.28,0,0,1-2,28.45,69.77,69.77,0,0,1-7.85,22.68,53.71,53.71,0,0,1-19.18,19.81A50.82,50.82,0,0,1,248,313.41Zm-.39-126.66c-6.31,0-10.25,2.92-12.79,9.47-3.09,8-4.66,20.78-4.66,38.05,0,11.86.69,21.64,2.06,29.09,1.25,6.82,3.27,11.92,6,15.16,2.34,2.77,5.38,4.06,9.56,4.06,4.35,0,7.46-1.34,9.8-4.22,2.77-3.41,4.78-8.58,6-15.36,1.3-7.39,2-17.32,2-29.51,0-11.51-.69-21-2.06-28.23-1.24-6.57-3.24-11.48-6-14.58C255.17,188,251.92,186.75,247.56,186.75Z"/><path d="M247.17,161.42a48.94,48.94,0,0,1,18.26,3.27,41.7,41.7,0,0,1,14.4,9.57,54.61,54.61,0,0,1,10.5,15.58q7.43,16.11,7.42,45.61A167.62,167.62,0,0,1,295.8,263a64.14,64.14,0,0,1-7.22,20.9,48,48,0,0,1-17.19,17.78A45.19,45.19,0,0,1,248,307.91a44.66,44.66,0,0,1-26.61-8.4q-11.78-8.4-17.73-23.24a86.85,86.85,0,0,1-4.44-17.92,149.77,149.77,0,0,1-1.42-21.24,204.41,204.41,0,0,1,1.57-26.57,87.85,87.85,0,0,1,4.88-20.31Q210,176.18,221,168.79t26.22-7.37m.58,126.66q9,0,14.07-6.25T269,264q2-11.62,2.05-30.47,0-17.87-2.15-29.25t-7.23-17.18q-5.07-5.82-14.06-5.81-12.88,0-17.92,13t-5,40q0,18.36,2.15,30.08T234,282.08q5.07,6,13.76,6m-.58-137.66c-12.33,0-23.22,3.11-32.35,9.24s-16.13,15-20.8,26.4a1.22,1.22,0,0,1-.07.17,99.17,99.17,0,0,0-5.54,22.87,216,216,0,0,0-1.66,28,161.43,161.43,0,0,0,1.53,22.81,97.56,97.56,0,0,0,5,20.2,2.44,2.44,0,0,0,.1.24c4.74,11.83,12,21.29,21.54,28.1a57.65,57.65,0,0,0,62,2.66,59.13,59.13,0,0,0,21.12-21.74.31.31,0,0,1,.05-.1,75.51,75.51,0,0,0,8.49-24.46,178.88,178.88,0,0,0,2.1-29.37c0-21.47-2.75-37.89-8.43-50.21a65.65,65.65,0,0,0-12.65-18.69,52.85,52.85,0,0,0-18.16-12.07,60.11,60.11,0,0,0-22.34-4.06Zm.58,126.66c-3.15,0-4.44-1-5.36-2.11-1.46-1.72-3.47-5.3-4.81-12.6-1.31-7.12-2-16.58-2-28.1,0-20.66,2.33-31,4.29-36.06s4.19-6,7.66-6,4.89,1,5.78,2.05c1.42,1.62,3.38,5,4.7,12s2,16,2,27.2c0,11.87-.64,21.48-1.89,28.56-1,5.76-2.68,10.21-4.83,12.85-.92,1.13-2.23,2.18-5.53,2.18Z" fill="#fff"/></g></g></svg>