<svg xmlns="http://www.w3.org/2000/svg" viewBox="0 0 378 380"><title>d4_1</title><g id="Layer_2" data-name="Layer 2"><g id="d4"><polygon points="6 305 189 6 372 305 189 374 6 305" fill="none" stroke="#000" stroke-linejoin="round" stroke-width="12"/><line x1="189" y1="374" x2="189" y2="6" fill="none" stroke="#000" stroke-linejoin="round" stroke-width="12"/><path d="M212.28,287.62A16.85,16.85,0,0,1,199.35,282c-3.17-3.53-4.77-8.5-4.77-14.75V254.61H151.05c-7.56,0-13.49-1.89-17.61-5.62-4.27-3.87-6.44-9.09-6.44-15.5a16.56,16.56,0,0,1,1-5.62,25,25,0,0,1,2.61-5.15c1-1.48,2-2.95,3-4.35l3.64-4.81L189,144.36a82.66,82.66,0,0,1,9-10.63,16.67,16.67,0,0,1,11.63-4.57c12.93,0,20.34,8.2,20.34,22.49v70.1a33.23,33.23,0,0,1,13,2.53c3.55,1.6,7.78,5.33,7.78,14,0,7.06-3.3,10.84-6.06,12.77-3.46,2.4-8.13,3.57-14.28,3.57H230v12.67c0,6.39-1.6,11.4-4.74,14.87A17,17,0,0,1,212.28,287.62Zm-17.7-65.88V187.18L169,221.74Z"/><path d="M209.65,134.66q14.83,0,14.84,17v75.59h4.2q7.51,0,12.06,2t4.54,9q0,5.67-3.71,8.26c-2.47,1.72-6.19,2.58-11.13,2.58h-6v18.17q0,7.52-3.32,11.18a11.41,11.41,0,0,1-8.89,3.66,11.27,11.27,0,0,1-8.83-3.76q-3.37-3.75-3.37-11.08V249.11h-49q-9.27,0-13.91-4.2t-4.64-11.42a11.2,11.2,0,0,1,.68-3.76,19.81,19.81,0,0,1,2-4c.91-1.39,1.86-2.75,2.83-4.05l3.62-4.78,51.76-69.24a77.37,77.37,0,0,1,8.35-9.91,11.07,11.07,0,0,1,7.86-3.08m-51.57,92.58h42V170.5l-42,56.74m51.57-103.58a22.11,22.11,0,0,0-15.4,6.06,88.16,88.16,0,0,0-9.64,11.37l-51.72,69.18c-1.44,1.89-2.64,3.49-3.62,4.8-1.13,1.5-2.22,3.06-3.26,4.65a30.56,30.56,0,0,0-3.18,6.3,22,22,0,0,0-1.33,7.47c0,7.92,2.85,14.69,8.26,19.58,5.15,4.67,12.32,7,21.29,7h38v7.17c0,7.65,2.07,13.85,6.17,18.42a23.43,23.43,0,0,0,34.07.15c4.09-4.52,6.17-10.77,6.17-18.57v-7.43a26.21,26.21,0,0,0,12.38-4.3c5.43-3.79,8.42-9.92,8.42-17.28,0-12.66-7.7-17.51-11-19a33.9,33.9,0,0,0-9.79-2.62v-65c0-8.37-2.16-15.1-6.43-20-3.19-3.65-9.15-8-19.41-8Zm-29.74,92.58,9.17-12.39v12.39Z" fill="#fff"/></g></g></svg>