<svg xmlns="http://www.w3.org/2000/svg" viewBox="0 0 379 348"><title>d6_1</title><g id="Layer_2" data-name="Layer 2"><g id="d6"><polygon points="190 149 6 78 6 271 190 342 190 149" fill="none" stroke="#000" stroke-linejoin="round" stroke-width="12"/><polygon points="190 149 373 78 373 271 190 342 190 149" fill="none" stroke="#000" stroke-linejoin="round" stroke-width="12"/><polygon points="6 78 190 6 373 78 190 149 6 78" fill="none" stroke="#000" stroke-linejoin="round" stroke-width="12"/><path d="M192,249.63c-12,0-22.57-3-31.39-8.94s-15.65-14.76-20.25-26.2c-4.44-11.06-6.7-24.64-6.7-40.38a137,137,0,0,1,4-34.4c2.71-10.34,6.69-19.09,11.85-26a52.13,52.13,0,0,1,19.31-16.13,58.47,58.47,0,0,1,25.53-5.43,53.28,53.28,0,0,1,24.53,5.49c7.16,3.68,12.68,8.37,16.42,14s5.76,11.41,5.76,16.92a15.84,15.84,0,0,1-4.49,11,15.57,15.57,0,0,1-11.75,5A18,18,0,0,1,214,140.89a20.4,20.4,0,0,1-7.07-9.68,15,15,0,0,0-5.22-6.91,13.25,13.25,0,0,0-8.08-2.5,14.84,14.84,0,0,0-7.54,2.23,21.31,21.31,0,0,0-6.89,6.43c-2.1,3.06-4.63,8.95-6.19,20.21a44,44,0,0,1,5.32-3.09,45.06,45.06,0,0,1,19.89-4.36,47.64,47.64,0,0,1,19.35,3.93,47,47,0,0,1,15.6,11.17,50.67,50.67,0,0,1,10.24,16.9,57.52,57.52,0,0,1,3.57,20.08,55.93,55.93,0,0,1-7,27.69,50.47,50.47,0,0,1-19.7,19.64A57.13,57.13,0,0,1,192,249.63Zm.39-76.86a17,17,0,0,0-8.8,2.48,18.35,18.35,0,0,0-6.85,7.23,23.9,23.9,0,0,0-2.68,11.65c0,7.6,1.85,13.68,5.68,18.59,3.53,4.55,7.61,6.67,12.84,6.67,4.93,0,8.74-1.9,12-6,3.47-4.35,5.24-10.31,5.24-17.71a30.39,30.39,0,0,0-2.5-12.93,17.32,17.32,0,0,0-6.29-7.48A15.59,15.59,0,0,0,192.42,172.77Z"/><path d="M194.37,97.64a47.56,47.56,0,0,1,22,4.89q9.53,4.88,14.36,12.11t4.83,13.86a10.47,10.47,0,0,1-3,7.28,10.05,10.05,0,0,1-7.71,3.27,12.55,12.55,0,0,1-7.62-2.59,15,15,0,0,1-5.18-7.17,20.44,20.44,0,0,0-7.12-9.43,18.77,18.77,0,0,0-11.33-3.56,20.27,20.27,0,0,0-10.3,3,26.86,26.86,0,0,0-8.65,8q-7.12,10.35-8.4,36.92a44.49,44.49,0,0,1,14.46-11.72,39.34,39.34,0,0,1,17.48-3.81,42,42,0,0,1,17.14,3.47,41.26,41.26,0,0,1,13.77,9.86,45.11,45.11,0,0,1,9.13,15.09,51.77,51.77,0,0,1,3.22,18.16,50.22,50.22,0,0,1-6.3,25,44.83,44.83,0,0,1-17.58,17.53,51.45,51.45,0,0,1-25.53,6.3q-16.41,0-28.32-8t-18.22-23.68q-6.3-15.67-6.3-38.33a130.58,130.58,0,0,1,3.81-33q3.81-14.55,10.94-24.12a46.43,46.43,0,0,1,17.28-14.45,52.75,52.75,0,0,1,23.15-4.89m-1.76,127.25a20,20,0,0,0,16.31-8.06q6.45-8.06,6.45-21.14a35.41,35.41,0,0,0-3-15.28,22.85,22.85,0,0,0-8.3-9.77,21.21,21.21,0,0,0-11.62-3.37,22.63,22.63,0,0,0-11.58,3.23,23.77,23.77,0,0,0-8.88,9.32,29.11,29.11,0,0,0-3.37,14.31q0,13.19,6.83,22t17.19,8.79m1.76-138.25a63.91,63.91,0,0,0-27.91,6,57.61,57.61,0,0,0-21.34,17.8c-5.58,7.49-9.87,16.88-12.76,27.91a142.34,142.34,0,0,0-4.17,35.79c0,16.44,2.39,30.72,7.1,42.43,5,12.49,12.51,22.15,22.28,28.71s21.34,9.88,34.46,9.88a62.54,62.54,0,0,0,30.9-7.7,55.8,55.8,0,0,0,21.8-21.75,61.2,61.2,0,0,0,7.71-30.38,63.17,63.17,0,0,0-3.91-22,56.1,56.1,0,0,0-11.36-18.72,53,53,0,0,0-5.86-5.47,20.66,20.66,0,0,0,9.32-5.87,21.49,21.49,0,0,0,6-14.75c0-6.62-2.25-13.34-6.69-20-4.26-6.37-10.48-11.67-18.48-15.78a58.73,58.73,0,0,0-27-6.1Zm-13.74,54a25.43,25.43,0,0,1,3.07-7.07,15.81,15.81,0,0,1,5.11-4.78,9.47,9.47,0,0,1,4.78-1.49,7.67,7.67,0,0,1,4.84,1.45,9.47,9.47,0,0,1,3.32,4.4,27.61,27.61,0,0,0,2.31,4.87,57,57,0,0,0-5.88-.3,51.92,51.92,0,0,0-17.55,2.92Zm12,73.25c-3.48,0-6-1.36-8.5-4.54-3-3.91-4.52-8.89-4.52-15.22a18.2,18.2,0,0,1,2-9,13,13,0,0,1,4.8-5.15,11.77,11.77,0,0,1,6-1.72,10.11,10.11,0,0,1,5.69,1.64,11.93,11.93,0,0,1,4.29,5.21,25,25,0,0,1,2,10.57c0,6.21-1.32,10.88-4,14.27-2.2,2.76-4.51,3.93-7.72,3.93Z" fill="#fff"/></g></g></svg>