<svg xmlns="http://www.w3.org/2000/svg" viewBox="0 0 303.98 427.56"><title>d8_1</title><g id="Layer_2" data-name="Layer 2"><g id="d8"><polygon points="6 214.13 151.99 6 297.98 214.13 151.99 277.16 6 214.13" fill="none" stroke="#000" stroke-linejoin="round" stroke-width="12"/><line x1="151.99" y1="277.16" x2="151.99" y2="6" fill="none" stroke="#000" stroke-linejoin="round" stroke-width="12"/><polygon points="6 213.43 151.99 421.56 297.98 213.43 151.99 277.16 6 213.43" fill="none" stroke="#000" stroke-linejoin="round" stroke-width="12"/><line x1="151.99" y1="277.16" x2="151.99" y2="421.56" fill="none" stroke="#000" stroke-linejoin="round" stroke-width="12"/><path d="M151.76,303.93c-11.6,0-21.75-2.1-30.16-6.23A45.68,45.68,0,0,1,101.91,280a48.45,48.45,0,0,1-6.63-25c0-16,6.52-28.46,19-36.45-9.33-7.15-14.2-17.08-14.2-29.17a40.06,40.06,0,0,1,6.14-21.3,43.14,43.14,0,0,1,17.84-15.85c7.61-3.82,16.54-5.76,26.54-5.76a68.32,68.32,0,0,1,22.2,3.33,47.25,47.25,0,0,1,16.56,9.48,39.73,39.73,0,0,1,10.05,13.94,41.65,41.65,0,0,1,3.27,16.35,36,36,0,0,1-5.83,20.11,37.5,37.5,0,0,1-8.12,8.77,41.36,41.36,0,0,1,6.39,5,40,40,0,0,1,9.55,14,46.15,46.15,0,0,1,3.19,17.35,48.46,48.46,0,0,1-6.73,25.12,46.1,46.1,0,0,1-19.79,17.8C172.93,301.83,163,303.93,151.76,303.93ZM151,234.49a17.41,17.41,0,0,0-12.84,5.06c-3.43,3.38-5.1,8.17-5.1,14.64a22.28,22.28,0,0,0,2.5,10.79,17.14,17.14,0,0,0,6.58,6.86,19.53,19.53,0,0,0,19,0,17.08,17.08,0,0,0,6.53-6.93A22.94,22.94,0,0,0,170.09,254a21.79,21.79,0,0,0-2.44-10.62,15.83,15.83,0,0,0-6.57-6.5A20.9,20.9,0,0,0,151,234.49Zm.19-58.39c-4.62,0-8.18,1.33-10.87,4.06s-4,6.31-4,10.85a12.78,12.78,0,0,0,4.07,9.84c2.8,2.69,6.41,4,11,4a17.5,17.5,0,0,0,6.35-1.09,13.59,13.59,0,0,0,4.63-2.89,12.24,12.24,0,0,0,2.88-4.28,16.45,16.45,0,0,0-.83-13.42,13.11,13.11,0,0,0-5.18-5.13A16,16,0,0,0,151.17,176.1Z"/><path d="M150.59,151.94A62.59,62.59,0,0,1,171,155a41.66,41.66,0,0,1,14.65,8.35,34.27,34.27,0,0,1,8.69,12,36,36,0,0,1,2.83,14.21,30.44,30.44,0,0,1-4.93,17.09q-4.94,7.51-14.7,12.31a41.25,41.25,0,0,1,13.77,8.44,34.36,34.36,0,0,1,8.25,12.11,40.38,40.38,0,0,1,2.79,15.29,42.8,42.8,0,0,1-6,22.31,40.47,40.47,0,0,1-17.48,15.67q-11.52,5.67-27.15,5.67-16.22,0-27.73-5.67a40,40,0,0,1-17.39-15.57A42.92,42.92,0,0,1,100.78,255q0-26.26,24.81-36-20-9.37-20-29.59a34.5,34.5,0,0,1,5.32-18.41,37.62,37.62,0,0,1,15.63-13.82q10.29-5.18,24.07-5.18m.78,58.4a23,23,0,0,0,8.35-1.46,19.15,19.15,0,0,0,6.44-4.06,17.69,17.69,0,0,0,4.15-6.15,20.38,20.38,0,0,0,1.47-7.86,20.66,20.66,0,0,0-2.59-10.35,18.71,18.71,0,0,0-7.27-7.23,21.54,21.54,0,0,0-10.75-2.63q-9.18,0-14.79,5.71T130.76,191a18.29,18.29,0,0,0,5.77,13.81q5.76,5.52,14.84,5.52m.19,69.44a23.79,23.79,0,0,0,12.31-3.23,22.6,22.6,0,0,0,8.59-9.08A28.15,28.15,0,0,0,175.59,254a27,27,0,0,0-3.13-13.28,21.33,21.33,0,0,0-8.79-8.69A26.44,26.44,0,0,0,151,229a22.88,22.88,0,0,0-16.7,6.64q-6.74,6.65-6.74,18.56a27.54,27.54,0,0,0,3.18,13.43,22.65,22.65,0,0,0,8.64,9,23.8,23.8,0,0,0,12.2,3.18m-1-138.84c-10.87,0-20.63,2.14-29,6.35a48.63,48.63,0,0,0-20.06,17.88,45.55,45.55,0,0,0-7,24.18c0,11.41,3.75,21.13,11,28.76C95.17,227,89.78,239.5,89.78,255a54,54,0,0,0,7.39,27.82,51.09,51.09,0,0,0,22,19.85c9.17,4.5,20.14,6.79,32.59,6.79,12.06,0,22.83-2.29,32-6.79a51.54,51.54,0,0,0,22.08-19.92,53.86,53.86,0,0,0,7.51-27.94,51.5,51.5,0,0,0-3.59-19.41,45.4,45.4,0,0,0-10.85-15.94c-.52-.5-1.06-1-1.61-1.47a41,41,0,0,0,10.87-28.42,47.33,47.33,0,0,0-3.7-18.5A45.3,45.3,0,0,0,193,155.18a52.78,52.78,0,0,0-18.46-10.61,73.74,73.74,0,0,0-24-3.63Zm.78,58.4c-4.18,0-6.13-1.4-7.24-2.46a7.43,7.43,0,0,1-2.37-5.87c0-4,1.32-5.83,2.46-7s2.91-2.42,6.95-2.42a10.69,10.69,0,0,1,5.35,1.22,7.79,7.79,0,0,1,3.09,3,9.83,9.83,0,0,1,1.17,4.95,9.57,9.57,0,0,1-.64,3.68,6.8,6.8,0,0,1-1.61,2.41,8.27,8.27,0,0,1-2.8,1.73,12.18,12.18,0,0,1-4.36.71Zm.19,69.44a13,13,0,0,1-6.68-1.69,11.86,11.86,0,0,1-4.51-4.74,16.68,16.68,0,0,1-1.83-8.16c0-7.31,2.61-9.88,3.46-10.72a11.87,11.87,0,0,1,9-3.48,15.59,15.59,0,0,1,7.51,1.73,10.37,10.37,0,0,1,4.34,4.31,16.19,16.19,0,0,1,1.76,8,17.28,17.28,0,0,1-1.83,8.3,11.61,11.61,0,0,1-4.48,4.79,12.88,12.88,0,0,1-6.72,1.7Z" fill="#fff"/></g></g></svg>