<svg xmlns="http://www.w3.org/2000/svg" viewBox="0 0 1890.49 330.65"><title>dark_f_logo</title><g id="Layer_2" data-name="Layer 2"><g id="Layer_5" data-name="Layer 5"><polygon points="1039.92 244.8 1109.98 109.96 1177.78 261.38 1039.92 244.8" fill="#27b0ff" stroke="#00607b" stroke-linejoin="round" stroke-width="12"/><polygon points="1177.78 261.38 1241.81 109.96 1315.63 245.56 1177.78 261.38" fill="#27b0ff" stroke="#00607b" stroke-linejoin="round" stroke-width="12"/><polygon points="1109.98 109.96 1177.78 6 1241.81 109.96 1109.98 109.96" fill="#27b0ff" stroke="#00607b" stroke-linejoin="round" stroke-width="12"/><polygon points="1109.98 109.96 1039.92 85.85 1177.78 6 1109.98 109.96" fill="#27b0ff" stroke="#00607b" stroke-linejoin="round" stroke-width="12"/><polygon points="1241.81 109.96 1177.78 6 1315.63 85.85 1241.81 109.96" fill="#27b0ff" stroke="#00607b" stroke-linejoin="round" stroke-width="12"/><polygon points="1039.92 85.85 1039.92 244.8 1109.98 109.96 1039.92 85.85" fill="#27b0ff" stroke="#00607b" stroke-linejoin="round" stroke-width="12"/><polygon points="1241.81 109.96 1315.63 245.56 1315.63 85.85 1241.81 109.96" fill="#27b0ff" stroke="#00607b" stroke-linejoin="round" stroke-width="12"/><polygon points="1039.92 244.8 1177.78 324.65 1177.78 261.38 1039.92 244.8" fill="#27b0ff" stroke="#00607b" stroke-linejoin="round" stroke-width="12"/><polygon points="1177.78 261.38 1315.63 245.56 1177.78 324.65 1177.78 261.38" fill="#27b0ff" stroke="#00607b" stroke-linejoin="round" stroke-width="12"/><polyline points="1109.56 110.12 1177.56 261.12 1241.56 110.12 1109.56 110.12" fill="#27b0ff" stroke="#00607b" stroke-linejoin="round" stroke-width="12"/></g><g id="text"><path d="M1485.92,131.75q0-42.65-41.5-42.65-30.81,0-34.37,16.3a46.82,46.82,0,0,0-1,9.93V239.07a67.92,67.92,0,0,0,.76,11.58,10.4,10.4,0,0,0,3.31,6.24,15.33,15.33,0,0,0,7.45,3q4.9.83,13.18,1.72l6.87.76v10.57h-79.43V262.36l4.32-.63q5.61-.76,9-1.6a9.68,9.68,0,0,0,5.35-3.11q3.3-3.82,3.31-17.95V110.23q0-12.47-2.87-15.4a15.27,15.27,0,0,0-7.25-4.07,73,73,0,0,0-11.9-1.78V78h33.09q7.26,0,19.23-1,23.16-1.79,36.21-1.78a85,85,0,0,1,26.36,4.32q13.29,4.33,22,11.84,16.8,14.77,16.8,39a57.91,57.91,0,0,1-11,33.86q-12.34,18-36.41,25.84L1554.16,309l-9.55,7.25L1433.22,191.33l5.6-11.33h9.68q15.13,0,25.58-11.84Q1485.93,154.41,1485.92,131.75Z" fill="#fff"/><path d="M1560.14,195.15a100.27,100.27,0,0,1,2-19.74,84.79,84.79,0,0,1,6-18.58,74.77,74.77,0,0,1,10-16.17A63.66,63.66,0,0,1,1592,127.93q16.92-11.46,39.33-11.46,33.87,0,53.47,24.19,18,22.16,18,54.61,0,32.73-18,55.63-19.61,25-53.47,25t-53.47-25.34Q1560.15,227.62,1560.14,195.15Zm56.27,63.77a37.74,37.74,0,0,0,15.08,2.81,38.7,38.7,0,0,0,15.09-2.74,33.72,33.72,0,0,0,11.2-7.58,42.76,42.76,0,0,0,7.83-11.26,73.73,73.73,0,0,0,5-13.82,103.8,103.8,0,0,0,3.44-26.16q0-12.91-.77-20.87a94.18,94.18,0,0,0-2.67-15.15,69.91,69.91,0,0,0-5-13.43,39.66,39.66,0,0,0-7.83-10.82q-10.18-9.68-26.22-9.68-30.18,0-39,34.63a120.67,120.67,0,0,0-3.43,30.42Q1589.17,247.22,1616.41,258.92Z" fill="#fff"/><path d="M1729.71,262.23l4.45-.63q5.47-.77,8.91-1.59a10,10,0,0,0,5.35-3q3.32-3.94,3.31-17.95V85.92q0-14.52-3.06-17.38a14.47,14.47,0,0,0-7.38-3.69c-2.88-.55-6.75-1-11.58-1.46V52.57h47.74v186.5q0,13.23,4.32,17.44,3.18,3.18,15.28,4.83l6.11.89V272.8h-73.45Z" fill="#fff"/><path d="M1817,262.23l4.45-.63q5.48-.77,8.91-1.59a10,10,0,0,0,5.35-3q3.32-3.94,3.31-17.95V85.92q0-14.52-3.06-17.38a14.47,14.47,0,0,0-7.38-3.69Q1824.3,64,1817,63.39V52.57h47.74v186.5q0,13.23,4.32,17.44,3.18,3.18,15.28,4.83l6.11.89V272.8H1817Z" fill="#fff"/><path d="M101.59,100.57q5.85-7.89,5.85-15t-2.92-11.2a23.9,23.9,0,0,0-7.9-6.94q-10.31-5.73-26.73-5.73-14.89,0-24.7,8a26.21,26.21,0,0,0-9.8,21.13q0,14.64,12.73,25.08a101.44,101.44,0,0,0,15.66,10.31q34.62,18,44.81,23.62a108.92,108.92,0,0,1,18.2,12.54q17.31,14.64,17.32,32.84,0,27.38-21.13,41.25-18.72,12.21-50.93,12.22A104.68,104.68,0,0,1,24.82,237.8Q9.55,230.17,3.18,218.71a26.81,26.81,0,0,1-3.18-13,25.4,25.4,0,0,1,3.12-12.67,35.24,35.24,0,0,1,7.7-9.48,38.81,38.81,0,0,1,18.59-9.42l6.87,8.15q-4.71,6.48-5.41,10.88a62.24,62.24,0,0,0-.7,9.8,23.64,23.64,0,0,0,3.44,11.52,37.34,37.34,0,0,0,9.29,10.83q13,10.3,30.68,10.31,30.67,0,39.85-19.48a34.5,34.5,0,0,0,2.92-14.77,24.87,24.87,0,0,0-4.64-15,48.39,48.39,0,0,0-12-11.45,113.9,113.9,0,0,0-16.48-9.3q-9.17-4.26-20.69-10.24a250,250,0,0,1-21.9-12.8,99.83,99.83,0,0,1-17.12-13.81q-13.36-14-13.37-32.08,0-22.27,18.34-35.65Q46.08,48.25,73.45,48.25q25.33,0,42.52,8.27Q134,65.18,134.05,79.44q0,13.49-12.22,22.27a34.63,34.63,0,0,1-10.82,5.1Z" fill="#fff"/><path d="M176.44,235.13q5.73-1.27,9.1-2.23a8.94,8.94,0,0,0,5-3.25q2.81-3.69,2.8-19.09V107.44H171.6V95.73q18.6-2.67,21.39-5.47h-.13q2.8-3.83,5-17.06t2.67-19.48L219,46.08V91.91h46.09v15.53H219V210.18q0,11.83,1.72,15.08a11.88,11.88,0,0,0,4.26,4.78,20.57,20.57,0,0,0,6.88,2.29q7,1.28,25.59,1.52v11.84h-81Z" fill="#fff"/><path d="M371.73,138.12q7.13-6.87,7.12-20.88,0-6.87-6.49-10.82-5.48-3.18-16.67-3.18-24.19,0-24.19,15.79v96.75a31.79,31.79,0,0,0,1.08,9,9.87,9.87,0,0,0,4.9,5.72q6.61,3.83,30.55,4.59v10.56H283V235.25l.25-.12q15-1.53,18-4.27a11.41,11.41,0,0,0,3.7-6.36,54.35,54.35,0,0,0,.7-9.74V126.54q0-13.87-2.74-17.19a14.29,14.29,0,0,0-6.69-4.58,56.61,56.61,0,0,0-10.43-2V91.91h26.35q15.66,0,22.28-.64t10.43-.89q11.46-1,18.65-1a100.6,100.6,0,0,1,14.84,1.14,47.23,47.23,0,0,1,13.49,3.95q12.86,6.11,12.86,19,0,10.3-8.41,19.22a37.83,37.83,0,0,1-17.56,11.07Z" fill="#fff"/><path d="M553.26,226.73q-17.44,21.51-52.32,21.51-33.62,0-52.58-21.77-18.21-21-18.2-55.5,0-35.52,20.24-58.69Q470.52,89.36,502,89.37q24.06,0,37.55,10.18,12.86,9.54,12.86,26.22,0,21.53-20.88,36.28-24.32,17.19-73.58,17.57,4.45,52.07,47.1,52.07,26.73,0,41-12.22ZM457.53,166q45.32-.88,61.36-21.51,5.85-7.63,5.85-19,0-14.77-12.73-20.37A31,31,0,0,0,499.67,103a31.32,31.32,0,0,0-13.12,2.61,35.55,35.55,0,0,0-10.31,7.13,48.17,48.17,0,0,0-8,10.56,71.2,71.2,0,0,0-5.73,13A100.16,100.16,0,0,0,457.53,166Z" fill="#fff"/><path d="M626.2,115.59a18.63,18.63,0,0,0-2.16,9.1q0,5.16,4.84,12.41l-8.66,5.22q-15-2.53-21.77-12.6a15.16,15.16,0,0,1-2.42-8.91q0-5.48,4.46-11.39A39,39,0,0,1,613,99q17.58-9.67,44.31-9.67,43.53,0,54.1,25.2A44.61,44.61,0,0,1,714.68,132v79.82q0,14.78,2.8,17.76a13,13,0,0,0,6.81,3.88A89.05,89.05,0,0,0,735.05,235v10.69H703.48q-9.42,0-21.52,1Q657.14,249,643.77,249a71.37,71.37,0,0,1-23.55-3.56A48.62,48.62,0,0,1,603.54,236q-12.6-11.33-12.6-28.9,0-19,22-35,26.49-19.61,76-20.62V129.21q0-26.48-35.26-26.48Q633.58,102.73,626.2,115.59ZM689,164.73q-68.87,4.08-68.87,42.39,0,20.24,20.5,26.1a56.36,56.36,0,0,0,15.91,1.91A102.32,102.32,0,0,0,672.73,234q6.69-1.06,10.32-3.88a13.14,13.14,0,0,0,4.77-7.7A57.62,57.62,0,0,0,689,209.79Zm0,0h.26l-.26-.13Z" fill="#fff"/><path d="M761.27,235.13l3.57-.51q12-1.65,14.38-4.2a12.07,12.07,0,0,0,3.06-6.56,77.09,77.09,0,0,0,.63-11.27V121.83q0-11.58-2.92-14.2a14.81,14.81,0,0,0-7.2-3.43,98.2,98.2,0,0,0-11.52-1.34v-11h47.49v26.48Q814.23,106.56,821,99.8a102.6,102.6,0,0,1,26.73-19.6q16.17,9.17,24.06,17.19a94.35,94.35,0,0,1,19.61,29q10.05-20.37,31.19-36,6.87-5.22,15.15-10.44,24.06,13.38,36.53,27.63,19.49,22.16,23.17,65.56,1.27,15.15,1.27,29.22t.7,19.16a18.14,18.14,0,0,0,2.55,7.76,8.86,8.86,0,0,0,5,3.57,71.7,71.7,0,0,0,8.27,1.65l4.84.64v10.56H950.45V235.13q7.24-.9,11.58-1.72a12.41,12.41,0,0,0,6.62-3.12q3.83-3.82,3.82-20.5l.13-19.22q.25-36.28-6.24-54.1Q959.49,117.24,937.72,98q-15.66,13.11-22.79,26.86a86,86,0,0,0-9,29.66,371.63,371.63,0,0,0-2.67,44q0,21.57.76,25.46a11.21,11.21,0,0,0,2.8,5.92q3.06,3,15,4.71l3.44.51v10.56H855.48V235.13c4.83-.6,8.7-1.15,11.58-1.66a12.11,12.11,0,0,0,6.62-3.05q3.69-3.57,3.69-19.86V195.15q0-41-4.13-55.56T862.92,116a91.83,91.83,0,0,0-16.48-17.82Q829.13,109.22,820.21,123q-11.44,17.84-11.45,42.4v43.15q0,16.8,2.48,20.11a11,11,0,0,0,6.17,4.27,95,95,0,0,0,10.06,1.85l3.31.38v10.56H761.27Z" fill="#fff"/><path d="M1115.53,103.81q-7.65,11-7.65,21.14t9,19.1l-12.65,12.5-12.57-12.5a73,73,0,0,1,10.19-32.51,68.39,68.39,0,0,1,8.28-11.45Z" fill="#fff"/><path d="M1157.88,149.6q6.39-12.71,22.89-21.07,12.15,6.47,18.68,14.19,10.32,12.42,12.5,36.94.71,8.43.71,16.29t.28,10.67a9.77,9.77,0,0,0,1.19,4.25,4.31,4.31,0,0,0,2.67,1.9c1.17.31,2.34.55,3.51.74a23.73,23.73,0,0,0,2.49.31,13.48,13.48,0,0,1,1.51.18v5.83H1185.9V214c2.67-.33,4.8-.64,6.39-.95a6.82,6.82,0,0,0,3.65-1.72q2-2,2-11.31v-8.14q0-16.08-.77-22.3a68.5,68.5,0,0,0-1.94-10.25,36.73,36.73,0,0,0-3.12-7.62q-3.87-6.75-12.08-13.28-22.18,13.69-22.19,37.08v23.81q0,9.27,1.37,11.1a6,6,0,0,0,3.4,2.35,53.09,53.09,0,0,0,5.55,1l1.83.21v5.83h-38.42v-5.76a2.92,2.92,0,0,1,1.09-.25c.45,0,1.27-.11,2.46-.28a34.78,34.78,0,0,0,3.72-.73,5.77,5.77,0,0,0,3-1.69c1.17-1.26,1.75-4.45,1.75-9.55V151.5q0-6.39-1.61-7.83a8.29,8.29,0,0,0-4-1.9,58.21,58.21,0,0,0-6.39-.74v-6h26.27Z" fill="#fff"/><path d="M1247.28,99.74l12.5,12.57q.63,7.93-4,19.94a77.7,77.7,0,0,1-14.4,24l-5.41-3.72a43.81,43.81,0,0,0,7.16-17.84,33.19,33.19,0,0,0,.5-5.48,15.92,15.92,0,0,0-1.62-7.79,47,47,0,0,0-7.44-9.13Z" fill="#fff"/></g></g></svg>