<?xml version="1.0" encoding="utf-8"?>
<!-- Generator: Adobe Illustrator 23.0.0, SVG Export Plug-In . SVG Version: 6.00 Build 0)  -->
<svg version="1.1" id="Capa_1" xmlns="http://www.w3.org/2000/svg" xmlns:xlink="http://www.w3.org/1999/xlink" x="0px" y="0px"
	 viewBox="0 0 512 512" style="enable-background:new 0 0 512 512;" xml:space="preserve">
<style type="text/css">
	.st0{fill:#FFFFFF;}
</style>
<g>
	<g>
		<path d="M476.9,124.8L261,1.3c-3.1-1.8-6.9-1.8-9.9,0l-216,123.4c-3.1,1.8-5,5.1-5,8.7v241.9c0,3.5,1.9,6.8,4.9,8.6l216,126.6
			c1.6,0.9,3.3,1.4,5.1,1.4c1.7,0,3.5-0.5,5.1-1.4L477,384c3.1-1.8,4.9-5.1,4.9-8.6V133.4C482,129.9,480,126.5,476.9,124.8
			L476.9,124.8z M90.3,256l32.9-63.8L50,334.2L90.3,256z M301,198.2h57.1l-102.1-10l-102.2,10H211c5.5,0,10-4.5,10-10s-4.5-10-10-10
			h-55.7L256,209.1l100.7-30.9H301c-5.5,0-10,4.5-10,10S295.5,198.2,301,198.2z M237.7,383.5l-69.4-120.3L137,209.1L237.7,383.5z
			 M375,209.1l-52.4,90.7l-48.3,83.7L375,209.1z M378.6,175L288,39.8l8,100.2L378.6,175z M133.4,175L133.4,175L224,39.8L133.4,175z
			 M184,448.2l62,36.3L83.8,389.4L184,448.2z M340.8,440.7l87.4-51.2L266,484.5L340.8,440.7z M388.8,192.2l73.2-41.6l-128.6,5.2
			L388.8,192.2z"/>
	</g>
</g>
<g id="dado">
	<g>
		<path class="st0" d="M476.9,124.8L261,1.3c-3.1-1.8-6.9-1.8-9.9,0l-216,123.4c-3.1,1.8-5,5.1-5,8.7v241.9c0,3.5,1.9,6.8,4.9,8.6
			l216,126.6c1.6,0.9,3.3,1.4,5.1,1.4s3.5-0.5,5.1-1.4L477,384c3.1-1.8,4.9-5.1,4.9-8.6V133.4C482,129.9,480,126.5,476.9,124.8
			L476.9,124.8z M50,150.6l73.2,41.6L50,334.2V150.6z M301,198.2h57.1L256,375.2L153.9,198.2H211c5.5,0,10-4.5,10-10s-4.5-10-10-10
			h-55.7L256,28l100.7,150.3H301c-5.5,0-10,4.5-10,10S295.5,198.2,301,198.2z M237.7,383.5l-182-16.7L137,209.1L237.7,383.5z
			 M375,209.1l81.3,157.7l-182,16.7L375,209.1z M378.6,175L288,39.8l163.7,93.6L378.6,175z M133.4,175l-73.2-41.5L224,39.8
			L133.4,175z M246,404.3v80.2L83.8,389.4L246,404.3z M266,404.3l162.2-14.9L266,484.5V404.3z M388.8,192.2l73.2-41.6v183.6
			L388.8,192.2z"/>
		<circle class="st0" cx="256" cy="188.2" r="10"/>
	</g>
</g>
</svg>
