<svg xmlns="http://www.w3.org/2000/svg" viewBox="0 0 1890.49 270.13"><title>text_logo_1</title><g id="Layer_2" data-name="Layer 2"><g id="text"><path d="M1485.92,85.67q0-42.64-41.5-42.65-30.81,0-34.37,16.29a47,47,0,0,0-1,9.93V193a68,68,0,0,0,.76,11.59,10.43,10.43,0,0,0,3.31,6.24,15.33,15.33,0,0,0,7.45,3q4.9.82,13.18,1.72l6.87.76v10.57h-79.43V216.28l4.32-.64c3.74-.51,6.75-1,9-1.59a9.63,9.63,0,0,0,5.35-3.12q3.3-3.81,3.31-18V64.15q0-12.47-2.87-15.4a15.27,15.27,0,0,0-7.25-4.07,73.91,73.91,0,0,0-11.9-1.79V31.94h33.09q7.26,0,19.23-1,23.16-1.79,36.21-1.79a85,85,0,0,1,26.36,4.33q13.29,4.34,22,11.84,16.8,14.77,16.8,39a57.93,57.93,0,0,1-11,33.86q-12.34,18-36.41,25.84l86.7,118.9-9.55,7.26L1433.22,145.25l5.6-11.33h9.68q15.13,0,25.58-11.84Q1485.93,108.32,1485.92,85.67Z"/><path d="M1560.14,149.06a100.17,100.17,0,0,1,2-19.73,84.79,84.79,0,0,1,6-18.58,74.77,74.77,0,0,1,10-16.17A63.66,63.66,0,0,1,1592,81.85q16.92-11.46,39.33-11.46,33.87,0,53.47,24.19,18,22.15,18,54.61,0,32.72-18,55.63-19.61,25-53.47,25t-53.47-25.33Q1560.15,181.52,1560.14,149.06Zm56.27,63.78a37.74,37.74,0,0,0,15.08,2.8,38.7,38.7,0,0,0,15.09-2.73,33.72,33.72,0,0,0,11.2-7.58,42.76,42.76,0,0,0,7.83-11.26,73.73,73.73,0,0,0,5-13.82,103.8,103.8,0,0,0,3.44-26.16q0-12.92-.77-20.88a94.25,94.25,0,0,0-2.67-15.14,70,70,0,0,0-5-13.44,40,40,0,0,0-7.83-10.82q-10.18-9.66-26.22-9.67-30.18,0-39,34.63a120.67,120.67,0,0,0-3.43,30.42Q1589.17,201.14,1616.41,212.84Z"/><path d="M1729.71,216.15l4.45-.63q5.47-.77,8.91-1.6a9.93,9.93,0,0,0,5.35-3q3.32-3.94,3.31-18V39.84q0-14.52-3.06-17.38a14.47,14.47,0,0,0-7.38-3.69c-2.88-.55-6.75-1-11.58-1.46V6.48h47.74V193q0,13.25,4.32,17.44,3.18,3.2,15.28,4.84l6.11.89v10.57h-73.45Z"/><path d="M1817,216.15l4.45-.63q5.48-.77,8.91-1.6a9.93,9.93,0,0,0,5.35-3q3.32-3.94,3.31-18V39.84q0-14.52-3.06-17.38a14.47,14.47,0,0,0-7.38-3.69q-4.32-.82-11.58-1.46V6.48h47.74V193q0,13.25,4.32,17.44,3.18,3.2,15.28,4.84l6.11.89v10.57H1817Z"/><path d="M101.59,54.49q5.85-7.91,5.85-15t-2.92-11.21a23.88,23.88,0,0,0-7.9-6.93q-10.31-5.73-26.73-5.73-14.89,0-24.7,8a26.2,26.2,0,0,0-9.8,21.13q0,14.64,12.73,25.08A101.44,101.44,0,0,0,63.78,80.2q34.62,18,44.81,23.62a108.92,108.92,0,0,1,18.2,12.54Q144.1,131,144.11,149.2q0,27.38-21.13,41.25-18.72,12.21-50.93,12.22a104.68,104.68,0,0,1-47.23-10.95q-15.27-7.64-21.64-19.1a26.74,26.74,0,0,1-3.18-13A25.37,25.37,0,0,1,3.12,147a35.24,35.24,0,0,1,7.7-9.48,38.81,38.81,0,0,1,18.59-9.42l6.87,8.14q-4.71,6.49-5.41,10.89a62.15,62.15,0,0,0-.7,9.8,23.64,23.64,0,0,0,3.44,11.52,37.3,37.3,0,0,0,9.29,10.82q13,10.32,30.68,10.31,30.67,0,39.85-19.47a34.5,34.5,0,0,0,2.92-14.77,24.87,24.87,0,0,0-4.64-15,48.61,48.61,0,0,0-12-11.46,114.83,114.83,0,0,0-16.48-9.29q-9.17-4.26-20.69-10.25a247.46,247.46,0,0,1-21.9-12.79A99.83,99.83,0,0,1,23.55,82.75q-13.36-14-13.37-32.08Q10.18,28.4,28.52,15,46.08,2.16,73.45,2.16q25.33,0,42.52,8.28Q134,19.1,134.05,33.35q0,13.5-12.22,22.28A34.62,34.62,0,0,1,111,60.72Z"/><path d="M176.44,189c3.82-.84,6.85-1.59,9.1-2.22a8.94,8.94,0,0,0,5-3.25q2.81-3.69,2.8-19.09V61.36H171.6V49.65Q190.2,47,193,44.17h-.13q2.8-3.81,5-17T200.5,7.64L219,0V45.83h46.09V61.36H219V164.09c0,7.9.57,12.92,1.72,15.09a11.91,11.91,0,0,0,4.26,4.77,20.13,20.13,0,0,0,6.88,2.29q7,1.27,25.59,1.53v11.84h-81Z"/><path d="M371.73,92q7.13-6.87,7.12-20.88,0-6.87-6.49-10.82-5.48-3.18-16.67-3.18-24.19,0-24.19,15.78V169.7a31.71,31.71,0,0,0,1.08,9,9.86,9.86,0,0,0,4.9,5.73Q344.1,188.28,368,189v10.57H283V189.17l.25-.13q15-1.51,18-4.26a11.44,11.44,0,0,0,3.7-6.36,54.35,54.35,0,0,0,.7-9.74V80.46q0-13.87-2.74-17.19a14.21,14.21,0,0,0-6.69-4.58,56.61,56.61,0,0,0-10.43-2V45.83h26.35q15.66,0,22.28-.64t10.43-.89q11.46-1,18.65-1a100.64,100.64,0,0,1,14.84,1.15,47.23,47.23,0,0,1,13.49,4q12.86,6.1,12.86,19,0,10.32-8.41,19.23a37.83,37.83,0,0,1-17.56,11.07Z"/><path d="M553.26,180.64q-17.44,21.53-52.32,21.52-33.62,0-52.58-21.77-18.21-21-18.2-55.51,0-35.5,20.24-58.68Q470.52,43.28,502,43.28q24.06,0,37.55,10.19Q552.37,63,552.37,79.69q0,21.53-20.88,36.28-24.32,17.19-73.58,17.57,4.45,52.07,47.1,52.07,26.73,0,41-12.22Zm-95.73-60.72q45.32-.89,61.36-21.51,5.85-7.65,5.85-19,0-14.77-12.73-20.37a31,31,0,0,0-12.34-2.17,31.48,31.48,0,0,0-13.12,2.61,35.74,35.74,0,0,0-10.31,7.13,48.47,48.47,0,0,0-8,10.57,71.2,71.2,0,0,0-5.73,13.05A100.16,100.16,0,0,0,457.53,119.92Z"/><path d="M626.2,69.51a18.63,18.63,0,0,0-2.16,9.1q0,5.16,4.84,12.41l-8.66,5.22q-15-2.55-21.77-12.6A15.16,15.16,0,0,1,596,74.73q0-5.48,4.46-11.4A39.08,39.08,0,0,1,613,53q17.58-9.68,44.31-9.68,43.53,0,54.1,25.21a44.58,44.58,0,0,1,3.31,17.44v79.82q0,14.76,2.8,17.76a13,13,0,0,0,6.81,3.88,91.12,91.12,0,0,0,10.76,1.53v10.69H703.48q-9.42,0-21.52,1-24.83,2.3-38.19,2.29a71.37,71.37,0,0,1-23.55-3.56,48.62,48.62,0,0,1-16.68-9.42q-12.6-11.34-12.6-28.9,0-19,22-35,26.49-19.61,76-20.62V83.13q0-26.47-35.26-26.48Q633.58,56.65,626.2,69.51ZM689,118.65q-68.87,4.06-68.87,42.39,0,20.24,20.5,26.1A56.4,56.4,0,0,0,656.5,189,102.44,102.44,0,0,0,672.73,188q6.69-1.08,10.32-3.88a13.17,13.17,0,0,0,4.77-7.7A57.62,57.62,0,0,0,689,163.71Zm0,0h.26l-.26-.13Z"/><path d="M761.27,189l3.57-.5q12-1.66,14.38-4.21a12,12,0,0,0,3.06-6.55,77.09,77.09,0,0,0,.63-11.27V75.75q0-11.59-2.92-14.2a14.91,14.91,0,0,0-7.2-3.44,100.78,100.78,0,0,0-11.52-1.33v-11h47.49V72.31Q814.23,60.48,821,53.72a102.37,102.37,0,0,1,26.73-19.6q16.17,9.16,24.06,17.18a94.39,94.39,0,0,1,19.61,29q10.05-20.37,31.19-36,6.87-5.22,15.15-10.44,24.06,13.37,36.53,27.63,19.49,22.14,23.17,65.56,1.27,15.15,1.27,29.21t.7,19.16a18.14,18.14,0,0,0,2.55,7.77,8.8,8.8,0,0,0,5,3.56,69.36,69.36,0,0,0,8.27,1.66l4.84.63v10.57H950.45V189q7.24-.89,11.58-1.71a12.41,12.41,0,0,0,6.62-3.12q3.83-3.83,3.82-20.5l.13-19.22q.25-36.29-6.24-54.11-6.87-19.22-28.64-38.44Q922.06,65.05,914.93,78.8a86,86,0,0,0-9,29.66,371.63,371.63,0,0,0-2.67,44q0,21.57.76,25.46a11.21,11.21,0,0,0,2.8,5.92q3.06,3,15,4.71l3.44.5v10.57H855.48V189c4.83-.59,8.7-1.14,11.58-1.65a12.05,12.05,0,0,0,6.62-3.06q3.69-3.56,3.69-19.85V149.07q0-41-4.13-55.57T862.92,69.89a91.54,91.54,0,0,0-16.48-17.82q-17.31,11.07-26.23,24.82-11.44,17.82-11.45,42.39v43.16q0,16.8,2.48,20.11a11,11,0,0,0,6.17,4.27,95.43,95.43,0,0,0,10.06,1.84l3.31.38v10.57H761.27Z"/><path d="M1115.53,57.73q-7.65,11-7.65,21.14t9,19.1l-12.65,12.5L1091.65,98a73,73,0,0,1,10.19-32.51A68.39,68.39,0,0,1,1110.12,54Z"/><path d="M1157.88,103.52q6.39-12.72,22.89-21.07,12.15,6.47,18.68,14.19,10.32,12.42,12.5,36.94c.47,5.61.71,11,.71,16.29s.09,8.8.28,10.67a9.77,9.77,0,0,0,1.19,4.25,4.35,4.35,0,0,0,2.67,1.9c1.17.3,2.34.55,3.51.74s2,.29,2.49.31a11.49,11.49,0,0,1,1.51.18v5.83H1185.9v-5.83q4-.49,6.39-.95a6.82,6.82,0,0,0,3.65-1.72q2-2,2-11.31V145.8q0-16.08-.77-22.3a68.25,68.25,0,0,0-1.94-10.25,36.51,36.51,0,0,0-3.12-7.62q-3.87-6.75-12.08-13.28-22.18,13.7-22.19,37.08v23.81q0,9.27,1.37,11.1a6.09,6.09,0,0,0,3.4,2.35,53.09,53.09,0,0,0,5.55,1l1.83.21v5.83h-38.42V168a2.92,2.92,0,0,1,1.09-.25c.45,0,1.27-.11,2.46-.28a32.58,32.58,0,0,0,3.72-.74,5.76,5.76,0,0,0,3-1.68q1.76-1.9,1.75-9.55V105.42c0-4.26-.54-6.88-1.61-7.84a8.28,8.28,0,0,0-4-1.89,55.84,55.84,0,0,0-6.39-.74v-6h26.27Z"/><path d="M1247.28,53.66l12.5,12.57q.63,7.93-4,19.94a77.7,77.7,0,0,1-14.4,24l-5.41-3.72a43.81,43.81,0,0,0,7.16-17.84,33.29,33.29,0,0,0,.5-5.48,15.92,15.92,0,0,0-1.62-7.79,47,47,0,0,0-7.44-9.13Z"/></g></g></svg>